<?xml version="1.0" encoding="UTF-8"?>
<svg width="128px" height="128px" viewBox="0 0 128 128" version="1.1" xmlns="http://www.w3.org/2000/svg" xmlns:xlink="http://www.w3.org/1999/xlink">
    <!-- Generator: Sketch 53.2 (72643) - https://sketchapp.com -->
    <title>icon128</title>
    <desc>Created with Sketch.</desc>
    <g id="icon128" stroke="none" stroke-width="1" fill="none" fill-rule="evenodd">
        <path d="M39.5,54.9830463 L117.5,54.9830463 C121.089851,54.9830463 124,57.8931954 124,61.4830463 L124,65.4830463 C124,69.0728972 121.089851,71.9830463 117.5,71.9830463 L39.5,71.9830463 C35.9101491,71.9830463 33,69.0728972 33,65.4830463 L33,61.4830463 C33,57.8931954 35.9101491,54.9830463 39.5,54.9830463 Z M9.9897064,34.7377215 L29.8588109,3.0479973 C31.7616734,0.0130750542 35.7612612,-0.910297792 38.8019607,0.983319113 L41.6926641,2.78352484 C44.7399195,4.68122446 45.6718186,8.68990254 43.774119,11.7371579 C43.770633,11.7427555 43.7671386,11.7483477 43.7636357,11.7539346 L23.8945312,43.4436589 C21.9916687,46.4785811 17.9920809,47.4019539 14.9513814,45.508337 L12.060678,43.7081313 C9.01342261,41.8104317 8.08152352,37.8017536 9.97922313,34.7544982 C9.98270904,34.7489007 9.98620347,34.7433084 9.9897064,34.7377215 Z M24.786636,84.3293392 L44.0974236,116.359243 C45.9509351,119.433576 44.9612635,123.428384 41.8869304,125.281895 C41.8813827,125.28524 41.8758299,125.288576 41.8702722,125.291904 L38.9478965,127.041909 C35.8745446,128.882323 31.8914967,127.889242 30.0419025,124.821407 L10.731115,92.7915027 C8.8776035,89.7171695 9.86727502,85.7223621 12.9416082,83.8688506 C12.9471559,83.8655059 12.9527086,83.8621695 12.9582663,83.8588414 L15.8806421,82.1088368 C18.953994,80.2684232 22.9370419,81.2615036 24.786636,84.3293392 Z M14,72.9830463 C8.4771525,72.9830463 4,68.5058938 4,62.9830463 C4,57.4601988 8.4771525,52.9830463 14,52.9830463 C19.5228475,52.9830463 24,57.4601988 24,62.9830463 C24,68.5058938 19.5228475,72.9830463 14,72.9830463 Z" id="Combined-Shape" fill="#000000"></path>
    </g>
</svg>